# xmcd
#
# Track frame offsets: 
#        150
#        16440
#        36570
#        51755
#        70010
#        90202
#        110170
#        125220
#        143290
#        159345
#        177540
#        195530
#        211200
#        228775
#
# Disc length: 3306 seconds
#
# Revision: 3
# Processed by: cddbd v1.5.1PL2 Copyright (c) Steve Scherf et al.
# Submitted via: ExactAudioCopy v0.90b4
#
DISCID=bb0ce80e
DTITLE=Various Artist - Históia De Amor - Nacional (OST)
DYEAR=1995
DGENRE=Soundtrack
TTITLE0=Maurício Mattar - Nada Apaga Essa Paixão
TTITLE1=Fanzine - Uma História De Amor
TTITLE2=Cidade Negra - Querem Meu Sangue (The Harder They Come)
TTITLE3=Anna Lemgruber - Desencanto
TTITLE4=Loop - Minha Ambição
TTITLE5=Gilberto Gil - Só Chamei Porque Te Amo (I Just Call To Say I L
TTITLE5=ove You)
TTITLE6=Os Paralamas Do Sucesso - Saber Amar
TTITLE7=Elis Regina - Alô Alô Marciano
TTITLE8=Faróis Acesos - O 40
TTITLE9=Gal Costa - Futuros Amantes
TTITLE10=Fernanda Abreu (Part. Esp. Daddae Harvery) - Um Dia Não Outro
TTITLE10=Sim
TTITLE11=Netinho - Como?
TTITLE12=Veneza - Delirando De Prazer
TTITLE13=Ivan Lins - Lembra De Mim
EXTD=
EXTT0=
EXTT1=
EXTT2=
EXTT3=
EXTT4=
EXTT5=
EXTT6=
EXTT7=
EXTT8=
EXTT9=
EXTT10=
EXTT11=
EXTT12=
EXTT13=
PLAYORDER=
